<?xml version="1.0" encoding="UTF-8" standalone="no"?>
<!-- Created with Inkscape (http://www.inkscape.org/) -->

<svg
   width="210mm"
   height="297mm"
   viewBox="0 0 210 297"
   version="1.1"
   id="svg12939"
   inkscape:version="1.2.1 (9c6d41e410, 2022-07-14)"
   sodipodi:docname="LogoPagActv.svg"
   xmlns:inkscape="http://www.inkscape.org/namespaces/inkscape"
   xmlns:sodipodi="http://sodipodi.sourceforge.net/DTD/sodipodi-0.dtd"
   xmlns="http://www.w3.org/2000/svg"
   xmlns:svg="http://www.w3.org/2000/svg">
  <sodipodi:namedview
     id="namedview12941"
     pagecolor="#ffffff"
     bordercolor="#666666"
     borderopacity="1.0"
     inkscape:showpageshadow="2"
     inkscape:pageopacity="0.0"
     inkscape:pagecheckerboard="0"
     inkscape:deskcolor="#d1d1d1"
     inkscape:document-units="mm"
     showgrid="false"
     inkscape:zoom="0.74564394"
     inkscape:cx="195.80391"
     inkscape:cy="721.524"
     inkscape:window-width="1920"
     inkscape:window-height="1017"
     inkscape:window-x="-8"
     inkscape:window-y="-8"
     inkscape:window-maximized="1"
     inkscape:current-layer="g14665" />
  <defs
     id="defs12936" />
  <g
     inkscape:label="Capa 1"
     inkscape:groupmode="layer"
     id="layer1">
    <g
       id="g14665"
       style="stroke:#ffffff;stroke-opacity:1">
      <g
         id="g14475"
         transform="rotate(17.87532,141.12541,135.44806)"
         style="stroke:#ffffff;stroke-opacity:1" />
      <g
         id="g16157"
         style="stroke-width:3;stroke-dasharray:none"
         transform="translate(1.7741935,17.741936)">
        <path
           style="fill:none;fill-rule:evenodd;stroke:#ffffff;stroke-width:3;stroke-linecap:butt;stroke-linejoin:miter;stroke-dasharray:none;stroke-opacity:1"
           d="M 23.774193,26.258064 C 24.838709,276.0645 24.483871,276.0645 24.483871,276.0645 L 185.58064,275.70967 184.51613,25.903226 Z"
           id="path13427" />
        <rect
           style="fill:#020202;fill-opacity:0;stroke:#ffffff;stroke-width:3;stroke-dasharray:none;stroke-opacity:1"
           id="rect13483"
           width="29.451612"
           height="157.90323"
           x="123.83871"
           y="57.838707"
           transform="rotate(17.87532,141.12541,135.44806)" />
        <path
           style="fill:none;fill-rule:evenodd;stroke:#ffffff;stroke-width:3;stroke-linecap:butt;stroke-linejoin:miter;stroke-dasharray:none;stroke-opacity:1"
           d="m 130.58079,58.193304 c 1.06422,159.057646 1.06422,158.699406 1.06422,158.699406"
           id="path14363"
           transform="rotate(17.87532,141.12541,135.44806)" />
        <path
           style="fill:none;fill-rule:evenodd;stroke:#ffffff;stroke-width:3;stroke-linecap:butt;stroke-linejoin:miter;stroke-dasharray:none;stroke-opacity:1"
           d="m 143.70968,57.83871 c 0.70967,156.83871 0.70967,156.83871 0.70967,156.83871"
           id="path14365"
           transform="rotate(17.87532,141.12541,135.44806)" />
        <path
           style="fill:none;fill-rule:evenodd;stroke:#ffffff;stroke-width:3;stroke-linecap:round;stroke-linejoin:round;stroke-dasharray:none;stroke-opacity:1"
           d="m 122.77419,56.419355 -0.35484,-12.064516 32.29033,-0.35484 v 13.129032 h -0.35484"
           id="path14367"
           transform="rotate(17.87532,141.12541,135.44806)" />
        <path
           style="fill:none;fill-rule:evenodd;stroke:#ffffff;stroke-width:3;stroke-linecap:butt;stroke-linejoin:miter;stroke-dasharray:none;stroke-opacity:1"
           d="m 123.12903,216.45161 c 9.22581,22.35483 7.80645,23.06451 7.80645,23.06451 l 16.67742,-0.17741 6.74194,-22.17742"
           id="path14369"
           sodipodi:nodetypes="cccc"
           transform="rotate(17.87532,141.12541,135.44806)" />
        <path
           style="fill:#ffffff;fill-opacity:1;fill-rule:evenodd;stroke:#ffffff;stroke-width:3;stroke-linecap:butt;stroke-linejoin:miter;stroke-dasharray:none;stroke-opacity:1"
           d="m 131.17603,239.3387 9.11055,13.48388 7.17619,-13.6613 z"
           id="path14467"
           transform="rotate(17.87532,141.12541,135.44806)" />
        <path
           style="fill:none;fill-rule:evenodd;stroke:#ffffff;stroke-width:3;stroke-linecap:butt;stroke-linejoin:miter;stroke-dasharray:none;stroke-opacity:1"
           d="M 38.32258,57.129031 49.67742,66.354837 63.16129,57.129031 76.64516,63.16129 88,57.83871 l 19.87097,4.612902 17.03225,-4.612902 10.64516,3.193547 5.67743,-1.419355"
           id="path14477" />
        <path
           style="fill:none;fill-rule:evenodd;stroke:#ffffff;stroke-width:3;stroke-linecap:butt;stroke-linejoin:miter;stroke-dasharray:none;stroke-opacity:1"
           d="m 34.564875,91.154043 11.35484,9.225807 13.48387,-9.225807 13.48387,6.032259 11.35484,-5.32258 19.870965,4.612902 17.03226,-4.612902 10.64516,3.193547 5.67743,-1.419355"
           id="path14477-8" />
        <path
           style="fill:none;fill-rule:evenodd;stroke:#ffffff;stroke-width:3;stroke-linecap:butt;stroke-linejoin:miter;stroke-dasharray:none;stroke-opacity:1"
           d="m 37.016245,125.53256 9.516546,9.30679 11.300895,-9.30679 11.300896,6.08521 9.516545,-5.3693 16.653953,4.65339 14.27482,-4.65339 8.92176,3.22158 4.75828,-1.43181"
           id="path14477-8-9" />
        <path
           style="fill:none;fill-rule:evenodd;stroke:#ffffff;stroke-width:3;stroke-linecap:butt;stroke-linejoin:miter;stroke-dasharray:none;stroke-opacity:1"
           d="m 43.210641,155.28605 7.913673,9.39238 9.397484,-9.39238 9.397484,6.14117 7.913672,-5.41868 13.848923,4.69619 11.870503,-4.69619 7.41907,3.25121 3.95685,-1.44498"
           id="path14477-8-9-1" />
        <path
           style="fill:none;fill-rule:evenodd;stroke:#ffffff;stroke-width:3;stroke-linecap:butt;stroke-linejoin:miter;stroke-dasharray:none;stroke-opacity:1"
           d="m 44.799893,178.30962 7.014826,9.4499 8.330103,-9.4499 8.330103,6.17878 7.014825,-5.45186 12.275938,4.72495 10.522239,-4.72495 6.576403,3.27112 3.50742,-1.45383"
           id="path14477-8-9-1-4" />
        <path
           style="fill:none;fill-rule:evenodd;stroke:#ffffff;stroke-width:3;stroke-linecap:butt;stroke-linejoin:miter;stroke-dasharray:none;stroke-opacity:1"
           d="m 40.005108,207.02736 6.585009,9.48072 7.819696,-9.48072 7.819696,6.19893 6.585008,-5.46964 11.523759,4.74036 9.877514,-4.74036 6.173451,3.28179 3.292511,-1.45857"
           id="path14477-8-9-1-4-5" />
      </g>
    </g>
  </g>
</svg>
